<svg width="24" height="24" viewBox="0 0 24 24" fill="none" xmlns="http://www.w3.org/2000/svg">
<path d="M12.3536 16.3536C12.1583 16.5488 11.8417 16.5488 11.6464 16.3536L8.46447 13.1716C8.2692 12.9763 8.2692 12.6597 8.46447 12.4645C8.65973 12.2692 8.97631 12.2692 9.17157 12.4645L12 15.2929L14.8284 12.4645C15.0237 12.2692 15.3403 12.2692 15.5355 12.4645C15.7308 12.6597 15.7308 12.9763 15.5355 13.1716L12.3536 16.3536ZM12 6L12.5 6L12.5 16L12 16L11.5 16L11.5 6L12 6Z" fill="#00E676"/>
<path d="M20.1084 3.31445C20.2194 3.33912 20.3185 3.40064 20.3896 3.48926C20.4608 3.57789 20.4999 3.68813 20.5 3.80176V13.7891C20.4999 14.6944 20.2759 15.5856 19.8486 16.3838C19.4214 17.1821 18.8042 17.863 18.0508 18.3652L12 22.3984L5.94922 18.3652C5.19607 17.8632 4.57863 17.1827 4.15137 16.3848C3.72412 15.5867 3.50024 14.6953 3.5 13.79V3.80176L3.50684 3.71777C3.52108 3.63455 3.55694 3.55583 3.61035 3.48926C3.68152 3.40064 3.78065 3.33912 3.8916 3.31445L12 1.51172L20.1084 3.31445ZM19.5 4.20312L19.1084 4.11621L12.1084 2.56152L12 2.53809L11.8916 2.56152L4.8916 4.11621L4.5 4.20312V13.7891C4.50002 14.5298 4.68277 15.259 5.03223 15.9121C5.38175 16.5652 5.88757 17.1223 6.50391 17.5332L11.7227 21.0127L12 21.1982L12.2773 21.0127L17.4961 17.5332C18.1122 17.1224 18.6183 16.566 18.9678 15.9131C19.3173 15.2602 19.4998 14.5306 19.5 13.79V4.20312Z" fill="#00E676" stroke="#00E676"/>
</svg>
