<svg width="480" height="480" viewBox="0 0 480 480" fill="none" xmlns="http://www.w3.org/2000/svg">
<mask id="mask0_37764_3200" style="mask-type:luminance" maskUnits="userSpaceOnUse" x="49" y="0" width="383" height="480">
<path d="M431.601 0.997925H49.8965V480H431.601V0.997925Z" fill="white"/>
</mask>
<g mask="url(#mask0_37764_3200)">
<path d="M319.135 44.0983L419.07 141.456C427.576 149.725 431.763 158.093 431.632 166.525C431.5 174.957 427.84 182.642 420.686 189.615C413.201 196.912 405.123 200.609 396.485 200.771C387.846 200.901 379.274 196.815 370.767 188.545L268.557 88.9824C256.951 77.6645 245.741 69.6538 234.96 64.9513C224.178 60.2488 212.836 59.503 200.967 62.746C189.064 65.9567 176.305 74.2265 162.622 87.5229C143.762 105.911 134.761 123.164 135.685 139.283C136.607 155.401 145.971 172.135 163.743 189.421L266.777 289.826C275.383 298.193 279.602 306.56 279.471 314.863C279.339 323.197 275.646 330.884 268.359 337.986C261.106 345.055 253.094 348.753 244.39 349.045C235.685 349.336 227.014 345.283 218.441 336.915L118.506 239.558C102.252 223.732 90.514 208.749 83.2934 194.609C76.0727 180.47 73.3692 164.481 75.2485 146.645C76.93 131.37 81.9086 116.581 90.2173 102.247C98.493 87.9121 110.363 73.2536 125.76 58.2382C144.092 40.3688 161.599 26.6831 178.283 17.1484C194.933 7.61377 211.056 2.32756 226.618 1.22492C242.213 0.122272 257.578 3.17076 272.777 10.3704C287.977 17.57 303.408 28.7911 319.102 44.0983H319.135Z" fill="white"/>
<path d="M162.359 436.932L62.4575 339.575C53.951 331.272 49.7637 322.937 49.8956 314.506C50.0275 306.074 53.6873 298.388 60.8419 291.415C68.3263 284.118 76.4043 280.421 85.0426 280.258C93.681 280.129 102.253 284.182 110.76 292.485L212.937 392.048C224.576 403.366 235.753 411.376 246.534 416.079C257.316 420.781 268.658 421.494 280.56 418.284C292.463 415.074 305.222 406.803 318.905 393.474C337.765 375.086 346.766 357.833 345.843 341.715C344.92 325.597 335.556 308.862 317.785 291.545L262.888 238.52C254.283 230.153 250.062 221.786 250.194 213.484C250.326 205.149 254.019 197.463 261.305 190.361C268.559 183.29 276.571 179.594 285.275 179.302C293.979 179.01 302.651 183.064 311.223 191.431L362.988 241.407C379.242 257.233 390.98 272.216 398.201 286.356C405.421 300.495 408.125 316.484 406.245 334.32C404.564 349.595 399.586 364.384 391.277 378.719C383.001 393.053 371.132 407.712 355.734 422.727C337.402 440.596 319.895 454.282 303.211 463.816C286.528 473.352 270.406 478.67 254.81 479.772C239.215 480.876 223.85 477.827 208.651 470.627C193.451 463.427 178.02 452.207 162.326 436.9L162.359 436.932Z" fill="white"/>
<path d="M224.674 185.724C244.941 185.724 261.371 169.563 261.371 149.628C261.371 129.693 244.941 113.533 224.674 113.533C204.407 113.533 187.978 129.693 187.978 149.628C187.978 169.563 204.407 185.724 224.674 185.724Z" fill="white"/>
</g>
</svg>
